Coordinates
version=1
nRows=19
nColumns=24
inDegrees=yes

Units are S.I. units (second, meters, Newtons, ...)
Angles are in degrees.

endheader
time	pelvis_tilt	pelvis_list	pelvis_rotation	pelvis_tx	pelvis_ty	pelvis_tz	hip_flexion_r	hip_adduction_r	hip_rotation_r	knee_angle_r	ankle_angle_r	subtalar_angle_r	mtp_angle_r	hip_flexion_l	hip_adduction_l	hip_rotation_l	knee_angle_l	ankle_angle_l	subtalar_angle_l	mtp_angle_l	lumbar_extension	lumbar_bending	lumbar_rotation
      6.37000000	     52.03965429	      4.33489126	     -4.00432221	      1.28704310	      1.04368492	     -0.28900013	     25.51497805	     -8.88531864	      6.12441427	    -65.61226151	    -24.48859638	      0.00000000	      0.00000000	     19.66922941	    -10.81755294	     -4.73633953	    -62.78863386	    -14.64526447	      0.00000000	      0.00000000	      0.00000000	      0.00000000	      0.00000000
      6.38000000	     52.04700911	      4.33889532	     -4.00085531	      1.28703952	      1.04368816	     -0.28900447	     25.50675844	     -8.89193218	      6.12032473	    -65.60933697	    -24.48626618	      0.00000000	      0.00000000	     19.66205962	    -10.81025797	     -4.73668785	    -62.78358183	    -14.64701217	      0.00000000	      0.00000000	      0.00000000	      0.00000000	      0.00000000
      6.39000000	     52.05555779	      4.34040452	     -3.99884531	      1.28702460	      1.04368982	     -0.28901031	     25.49712480	     -8.89608773	      6.11656785	    -65.60820214	    -24.48784473	      0.00000000	      0.00000000	     19.65388569	    -10.80511125	     -4.73679852	    -62.77890635	    -14.64982357	      0.00000000	      0.00000000	      0.00000000	      0.00000000	      0.00000000
      6.40000000	     52.06507482	      4.33937657	     -3.99857946	      1.28700726	      1.04369414	     -0.28901424	     25.48582243	     -8.89704378	      6.11377041	    -65.60862066	    -24.49298554	      0.00000000	      0.00000000	     19.64409719	    -10.80337701	     -4.73658418	    -62.77547593	    -14.65311546	      0.00000000	      0.00000000	      0.00000000	      0.00000000	      0.00000000
      6.41000000	     52.07492805	      4.33622037	     -3.99987340	      1.28699829	      1.04370222	     -0.28901259	     25.47329139	     -8.89489680	      6.11240572	    -65.61055302	    -24.50059201	      0.00000000	      0.00000000	     19.63253171	    -10.80524249	     -4.73610692	    -62.77404244	    -14.65610725	      0.00000000	      0.00000000	      0.00000000	      0.00000000	      0.00000000
      6.42000000	     52.08464330	      4.33143394	     -4.00236949	      1.28699657	      1.04371082	     -0.28900644	     25.46058246	     -8.89041001	      6.11263883	    -65.61412842	    -24.50909981	      0.00000000	      0.00000000	     19.61984264	    -10.80969389	     -4.73557815	    -62.77482618	    -14.65806819	      0.00000000	      0.00000000	      0.00000000	      0.00000000	      0.00000000
      6.43000000	     52.09402079	      4.32569668	     -4.00563224	      1.28699410	      1.04371761	     -0.28900202	     25.44898249	     -8.88480081	      6.11428092	    -65.61966236	    -24.51685410	      0.00000000	      0.00000000	     19.60740332	    -10.81497063	     -4.73517430	    -62.77739040	    -14.65858605	      0.00000000	      0.00000000	      0.00000000	      0.00000000	      0.00000000
      6.44000000	     52.10277137	      4.32005191	     -4.00905728	      1.28698641	      1.04372213	     -0.28900400	     25.43953998	     -8.87952259	      6.11687549	    -65.62763978	    -24.52249660	      0.00000000	      0.00000000	     19.59670196	    -10.81928034	     -4.73486824	    -62.78090526	    -14.65774026	      0.00000000	      0.00000000	      0.00000000	      0.00000000	      0.00000000
      6.45000000	     52.11020936	      4.31575038	     -4.01189399	      1.28697530	      1.04372434	     -0.28901001	     25.43270936	     -8.87603518	      6.11988587	    -65.63862278	    -24.52527279	      0.00000000	      0.00000000	     19.58869292	    -10.82139082	     -4.73442494	    -62.78456737	    -14.65607690	      0.00000000	      0.00000000	      0.00000000	      0.00000000	      0.00000000
      6.46000000	     52.11552073	      4.31379632	     -4.01353443	      1.28696558	      1.04372377	     -0.28901392	     25.42832067	     -8.87547883	      6.12286707	    -65.65299560	    -24.52516844	      0.00000000	      0.00000000	     19.58353296	    -10.82089932	     -4.73354015	    -62.78785999	    -14.65437750	      0.00000000	      0.00000000	      0.00000000	      0.00000000	      0.00000000
      6.47000000	     52.11850460	      4.31454073	     -4.01383614	      1.28696176	      1.04372079	     -0.28901389	     25.42588765	     -8.87829592	      6.12553332	    -65.67059132	    -24.52284760	      0.00000000	      0.00000000	     19.58074555	    -10.81815841	     -4.73203836	    -62.79053844	    -14.65332463	      0.00000000	      0.00000000	      0.00000000	      0.00000000	      0.00000000
      6.48000000	     52.11992550	      4.31754359	     -4.01312475	      1.28696534	      1.04371870	     -0.28901264	     25.42486993	     -8.88407201	      6.12775813	    -65.69052074	    -24.51944719	      0.00000000	      0.00000000	     19.57949605	    -10.81395657	     -4.73004111	    -62.79249738	    -14.65321001	      0.00000000	      0.00000000	      0.00000000	      0.00000000	      0.00000000
      6.49000000	     52.12105648	      4.32175694	     -4.01190620	      1.28697410	      1.04371996	     -0.28901290	     25.42464321	     -8.89171004	      6.12954285	    -65.71139609	    -24.51629937	      0.00000000	      0.00000000	     19.57876380	    -10.80910845	     -4.72799518	    -62.79369181	    -14.65379324	      0.00000000	      0.00000000	      0.00000000	      0.00000000	      0.00000000
      6.50000000	     52.12290711	      4.32595559	     -4.01059428	      1.28698174	      1.04372200	     -0.28901522	     25.42437669	     -8.89983981	      6.13095927	    -65.73180948	    -24.51463165	      0.00000000	      0.00000000	     19.57747535	    -10.80417706	     -4.72647923	    -62.79414343	    -14.65435703	      0.00000000	      0.00000000	      0.00000000	      0.00000000	      0.00000000
      6.51000000	     52.12584724	      4.32923839	     -4.00941766	      1.28698046	      1.04372077	     -0.28901786	     25.42312919	     -8.90732611	      6.13211185	    -65.75075596	    -24.51529015	      0.00000000	      0.00000000	     19.57473018	    -10.79948219	     -4.72585241	    -62.79397348	    -14.65394230	      0.00000000	      0.00000000	      0.00000000	      0.00000000	      0.00000000
      6.52000000	     52.12981649	      4.33136784	     -4.00847801	      1.28697064	      1.04371644	     -0.28901968	     25.42018668	     -8.91362579	      6.13312794	    -65.76778416	    -24.51853864	      0.00000000	      0.00000000	     19.57009226	    -10.79528639	     -4.72596674	    -62.79339742	    -14.65169423	      0.00000000	      0.00000000	      0.00000000	      0.00000000	      0.00000000
      6.53000000	     52.13462353	      4.33261985	     -4.00783869	      1.28695955	      1.04371399	     -0.28902246	     25.41533363	     -8.91877578	      6.13412352	    -65.78291474	    -24.52398094	      0.00000000	      0.00000000	     19.56372142	    -10.79186177	     -4.72618907	    -62.79268069	    -14.64722474	      0.00000000	      0.00000000	      0.00000000	      0.00000000	      0.00000000
      6.54000000	     52.13997294	      4.33325014	     -4.00748285	      1.28694923	      1.04371835	     -0.28902756	     25.40885609	     -8.92305311	      6.13512970	    -65.79644835	    -24.53062960	      0.00000000	      0.00000000	     19.55621893	    -10.78934396	     -4.72574765	    -62.79207595	    -14.64089686	      0.00000000	      0.00000000	      0.00000000	      0.00000000	      0.00000000
      6.55000000	     52.14548307	      4.33323807	     -4.00716644	      1.28693959	      1.04372925	     -0.28903297	     25.40137305	     -8.92659551	      6.13604394	    -65.80873565	    -24.53712248	      0.00000000	      0.00000000	     19.54838278	    -10.78764853	     -4.72410848	    -62.79172968	    -14.63395688	      0.00000000	      0.00000000	      0.00000000	      0.00000000	      0.00000000
